<svg width="84" height="17" viewBox="0 0 84 17" fill="none" xmlns="http://www.w3.org/2000/svg">
<path d="M15.446 1.096L14.102 16H9.15803L7.86203 9.4H7.67003L6.59003 16H1.62203L0.0620313 1.096H3.99803L4.62203 8.992H4.86203L5.87003 1.096H9.87803L10.982 8.992H11.222L11.654 1.096H15.446ZM27.302 7.504L27.182 12.472C27.182 12.776 27.254 12.984 27.398 13.096C27.558 13.192 27.822 13.24 28.19 13.24L27.83 16.144C26.902 16.208 26.39 16.24 26.294 16.24C25.11 16.24 24.358 15.832 24.038 15.016H23.918C23.326 15.832 22.414 16.24 21.182 16.24C20.238 16.24 19.51 15.936 18.998 15.328C18.502 14.72 18.254 13.888 18.254 12.832C18.254 11.504 18.662 10.584 19.478 10.072C20.31 9.56 21.614 9.224 23.39 9.064V8.488C23.39 8.04 23.166 7.816 22.718 7.816C21.95 7.816 20.75 8.048 19.118 8.512L18.518 5.008C20.566 4.48 22.27 4.216 23.63 4.216C24.99 4.216 25.942 4.48 26.486 5.008C27.03 5.536 27.302 6.368 27.302 7.504ZM22.67 13.432C23.262 13.432 23.558 13.12 23.558 12.496V11.32C22.966 11.4 22.542 11.528 22.286 11.704C22.046 11.864 21.926 12.144 21.926 12.544C21.926 13.136 22.174 13.432 22.67 13.432ZM40.9551 4.504L38.5071 16H32.8431L30.3711 4.504H34.5951L35.6271 11.872H35.9391L37.0431 4.504H40.9551ZM48.4848 7.648C48.0688 7.648 47.7968 7.792 47.6688 8.08C47.5408 8.352 47.4768 8.776 47.4768 9.352H49.5648V8.776C49.5648 8.024 49.2048 7.648 48.4848 7.648ZM48.5808 4.216C50.2288 4.216 51.4048 4.616 52.1088 5.416C52.8288 6.2 53.1888 7.328 53.1888 8.8C53.1888 8.992 53.1328 9.856 53.0208 11.392H47.5488C47.5488 12.592 48.1008 13.192 49.2048 13.192C49.7328 13.192 50.7648 13.008 52.3008 12.64L52.6368 15.616C51.2928 16.032 49.9488 16.24 48.6048 16.24C46.9568 16.24 45.6928 15.704 44.8128 14.632C43.9328 13.544 43.4928 12.072 43.4928 10.216C43.4928 6.216 45.1888 4.216 48.5808 4.216ZM56.302 13.36V0.615999H60.262V12.088C60.262 12.36 60.318 12.552 60.43 12.664C60.558 12.776 60.774 12.832 61.078 12.832L60.766 16.24H59.446C58.39 16.24 57.598 16.024 57.07 15.592C56.558 15.144 56.302 14.4 56.302 13.36ZM68.7036 7.648C68.2876 7.648 68.0156 7.792 67.8876 8.08C67.7596 8.352 67.6956 8.776 67.6956 9.352H69.7836V8.776C69.7836 8.024 69.4236 7.648 68.7036 7.648ZM68.7996 4.216C70.4476 4.216 71.6236 4.616 72.3276 5.416C73.0476 6.2 73.4076 7.328 73.4076 8.8C73.4076 8.992 73.3516 9.856 73.2396 11.392H67.7676C67.7676 12.592 68.3196 13.192 69.4236 13.192C69.9516 13.192 70.9836 13.008 72.5196 12.64L72.8556 15.616C71.5116 16.032 70.1676 16.24 68.8236 16.24C67.1756 16.24 65.9116 15.704 65.0316 14.632C64.1516 13.544 63.7116 12.072 63.7116 10.216C63.7116 6.216 65.4076 4.216 68.7996 4.216ZM83.0008 16.024C81.8168 16.168 80.7848 16.24 79.9048 16.24C79.0408 16.24 78.3608 16.016 77.8648 15.568C77.3848 15.104 77.1448 14.312 77.1448 13.192V7.624H75.9928V4.648H77.3368L77.5528 2.44H81.1768V4.648H83.3128L83.1448 7.624H81.1528V12.4C81.1528 12.736 81.3128 12.904 81.6328 12.904C81.6648 12.904 82.1608 12.88 83.1208 12.832L83.0008 16.024Z" fill="#6BA2F5"/>
</svg>
